<svg width="16" height="16" viewBox="0 0 16 16" fill="none" xmlns="http://www.w3.org/2000/svg">
<path fill-rule="evenodd" clip-rule="evenodd" d="M2.89716 11.452C2.89716 11.452 3.38002 7.23286 0 4.43819C0 4.43819 4.58717 6.41084 5.5529 9.4794C5.5529 9.4794 6.63933 5.09591 3.07833 0C3.07833 0 11.6489 8.93144 8.20844 16C8.20844 16 5.79433 12.8766 2.89716 11.452ZM9.46842 9.42469C9.46842 9.42469 8.80458 6.90409 8.26126 6.30142C8.26126 6.30142 10.4946 1.97265 12.607 0C12.607 0 9.95128 4.60284 10.1927 8C10.1927 8 9.64958 8.76714 9.46842 9.42469ZM10.3266 13.1506C10.3266 13.1506 10.568 6.52043 16 4C16 4 12.5597 7.06839 13.1633 10.8492C13.1633 10.8492 10.749 12.2739 10.3266 13.1506Z" fill="#868797"/>
</svg>
