<svg width="16" height="16" viewBox="0 0 16 16" fill="none" xmlns="http://www.w3.org/2000/svg">
<path fill-rule="evenodd" clip-rule="evenodd" d="M8 6.24854L8.42909 5.6709L10.1333 14.2855L8 16L5.86667 14.2855L7.57091 5.6709L8 6.24854ZM6.00242 0H9.99758L10.6667 1.18471L8 4.45649L5.33333 1.18471L6.00242 0ZM16 3.40254C15.6964 5.9011 11.8812 5.66402 11.8812 5.66402L13.6319 7.97921L10.8202 9.10986L9.6 5.23324L11.4568 3.40254H16ZM4.54322 3.40254L6.4 5.23324L5.17982 9.10986L2.36806 7.97921L4.11882 5.66402C4.11882 5.66402 0.303649 5.9011 0 3.40254H4.54322Z" fill="#868797"/>
</svg>
