<svg width="30" height="30" viewBox="0 0 30 30" fill="none" xmlns="http://www.w3.org/2000/svg">
<circle cx="15" cy="15" r="14" fill="#00000D" stroke="#1C1F33" stroke-width="2"/>
<path d="M12.4 10.4623L10.2 8.25L9 9.32263L11.2667 11.602L9.93333 12.9427L11.1333 14.1494L15 10.2612L13.8 9.05447L12.4 10.4623Z" fill="#44465D"/>
<path d="M17.6667 10.4623L16.2667 9.05447H16.2L15.0667 10.1941V10.3282L16.4 11.736L9 17.6355V20.25H11.6L17.4 12.7416L18.8 14.1494L20 12.9427L18.6667 11.602L20.9333 9.32263L19.8667 8.25L17.6667 10.4623Z" fill="#44465D"/>
<path d="M21 17.7025L18.4 15.088L15.9333 17.7025L18.4 20.25H21V17.7025Z" fill="#44465D"/>
</svg>
